<?xml version="1.0" encoding="utf-8"?>
<!-- Generator: Adobe Illustrator 28.0.0, SVG Export Plug-In . SVG Version: 6.00 Build 0)  -->
<svg version="1.1" id="Layer_1" xmlns="http://www.w3.org/2000/svg" xmlns:xlink="http://www.w3.org/1999/xlink" x="0px" y="0px"
	 viewBox="0 0 1444.6 184.5" style="enable-background:new 0 0 1444.6 184.5;" xml:space="preserve">
<style type="text/css">
	.st0{fill:#80A7D6;}
	.st1{fill:#217BAE;}
	.st2{fill:#C72021;}
	.st3{fill:#1D1D1D;}
</style>
<rect x="480.2" y="89.7" class="st0" width="17.2" height="94.7"/>
<rect x="399.2" y="124.3" class="st1" width="133.9" height="15.5"/>
<rect x="279.4" y="170.2" class="st0" width="104.5" height="12.6"/>
<path class="st2" d="M312.5,163.1l-12.4-12.9c29.3-28.2,56.1-58.4,56.3-58.7c5.4-6.2,9.6-18.5,9.6-27.9c0-8.5-3.1-16.4-8.9-22.2
	c-6-6-14.7-9.4-24.3-9.4h-3.8c-18.8,0-34.6,15.3-34.6,33.5v4.9h-17.8v-4.9c0-27.8,24-51.3,52.5-51.3h3.8c14.4,0,27.5,5.2,37,14.6
	C379,38,384,50.3,383.9,63.6c0,13.8-5.8,30.1-14.1,39.6C369.5,103.6,342.3,134.4,312.5,163.1L312.5,163.1z"/>
<path class="st0" d="M288.1,163.9l-12.5-12.7l17.3-17.1c28.4-27.3,50.3-53.1,50.5-53.4l0.2-0.2c2.9-3.4,6-11.2,5.6-16.1
	c-0.4-5.1-1.7-8.7-4-10.9c-2.8-2.9-7.2-4.4-12.4-4.4h-3.8c-9.3,0-17.7,7.9-17.7,16.6v4.9h-17.8v-4.9c0-18.7,16.3-34.4,35.6-34.4h3.8
	c9.9,0,18.8,3.4,25,9.7c5.3,5.3,8.4,12.7,9.1,22.1c0.9,10.6-4.5,23-9.9,29.3l-0.1,0.1c-0.2,0.2-22.7,26.6-51.7,54.6L288.1,163.9
	L288.1,163.9z"/>
<path class="st2" d="M399.2,155.3H427c7.2-7.8,14.3-16.5,21.1-25.8c29.5-40.2,49.3-85,49.3-111.5h-20.9c0,22-19.1,64.1-45.5,100
	c-10.5,14.3-21.2,26.6-31.8,36.5L399.2,155.3L399.2,155.3z"/>
<path class="st0" d="M399.2,154.3c10.6-9.9,21.3-22.1,31.7-36.4C457.3,82,476.4,40,476.4,18h-20.9c0,21.8-24.4,64.9-41.7,88.5
	c-5,6.8-9.9,12.9-14.6,18.4V154.3z"/>
<rect x="399.2" y="124.3" class="st1" width="52.8" height="15.5"/>
<rect x="399.2" y="139.8" class="st2" width="133.9" height="15.5"/>
<rect x="497.4" y="89.7" class="st1" width="17.2" height="94.7"/>
<rect x="275.5" y="168.1" class="st0" width="110.4" height="16.9"/>
<rect x="275.5" y="151.2" class="st1" width="110.4" height="16.9"/>
<rect x="301.1" y="151.2" class="st2" width="23.8" height="16.9"/>
<rect x="3.8" y="170.2" class="st0" width="104.5" height="12.6"/>
<path class="st1" d="M37,163.1l-12.4-12.9C53.9,122,80.6,91.8,80.9,91.5c5.4-6.2,9.6-18.5,9.6-27.9c0-8.5-3.1-16.4-8.9-22.2
	c-6-6-14.7-9.4-24.3-9.4h-3.8c-18.8,0-34.6,15.3-34.6,33.5v4.9H1.1v-4.9c0-27.8,24-51.3,52.5-51.3h3.8c14.4,0,27.5,5.2,37,14.6
	c9.1,9.1,14.1,21.5,14.1,34.8c0,13.8-5.8,30.1-14.1,39.6C94,103.6,66.8,134.4,37,163.1L37,163.1z"/>
<path class="st2" d="M12.6,163.9L0,151.2l17.3-17.1C45.7,106.7,67.7,81,67.9,80.7l0.2-0.2c2.9-3.4,6-11.2,5.6-16.1
	c-0.4-5.1-1.7-8.7-4-10.9c-2.9-2.9-7.2-4.4-12.4-4.4h-3.8c-9.3,0-17.7,7.9-17.7,16.6v4.9H18v-4.9c0-18.7,16.3-34.4,35.6-34.4h3.8
	c9.9,0,18.8,3.4,25,9.7c5.3,5.3,8.4,12.7,9.1,22.1c0.9,10.6-4.5,23-9.9,29.3l-0.1,0.1c-0.2,0.2-22.7,26.6-51.7,54.6L12.6,163.9
	L12.6,163.9z"/>
<rect y="168.1" class="st2" width="110.4" height="16.9"/>
<rect y="151.2" class="st0" width="110.4" height="16.9"/>
<rect x="25.6" y="151.2" class="st1" width="23.8" height="16.9"/>
<path class="st1" d="M192.2,16.7c-2.2,0-4.4,0.1-6.6,0.3h13C196.6,16.8,194.4,16.7,192.2,16.7L192.2,16.7z"/>
<path class="st1" d="M258.3,74.2c-2.5-12.5-6.9-23.1-13.2-31.8c-11-15.1-26.9-23.8-46.4-25.4h-13c-19.5,1.5-35.4,10-46.1,24.7
	c-6.5,8.8-10.9,19.6-13.4,32.5h17.3c2-9,5.3-16.5,9.7-22.5c8.6-11.8,22.1-18,39-18s30.3,6.5,39.2,18.7c4.3,6,7.5,13.3,9.6,21.9
	c2,8,2.9,17.1,2.9,27.3c0,11.2-1.3,21.1-3.9,29.8h17.5c2.2-9,3.3-19,3.3-29.8C260.8,91.6,260,82.5,258.3,74.2L258.3,74.2z"/>
<path class="st0" d="M241,74.2c-2.1-8.6-5.3-16-9.6-21.9c-8.8-12.2-22.4-18.7-39.2-18.7s-30.4,6.2-39,18c-4.5,6.1-7.7,13.6-9.7,22.5
	h18.4c1.4-4.7,3.3-8.7,5.7-12c5.3-7.2,13.3-10.7,24.6-10.7s19.2,3.7,24.7,11.3c2.3,3.2,4.2,7,5.6,11.5c2.4,7.4,3.6,16.5,3.6,27.3
	c0,11.9-1.7,21.9-5,29.8H240c2.6-8.7,3.9-18.6,3.9-29.8C243.9,91.3,243,82.2,241,74.2L241,74.2z"/>
<path class="st2" d="M240,131.3c-2.2,7.5-5.4,14-9.5,19.5c-9.1,12.2-22.4,18.6-38.2,18.6s-29.2-6.2-38.1-18
	c-4.2-5.6-7.4-12.3-9.7-20.1c-2.5-8.6-3.7-18.6-3.7-29.8c0-10.3,0.9-19.4,2.7-27.3h-17.3c-1.6,8.2-2.4,17.3-2.4,27.3
	c0,10.9,1.1,20.8,3.1,29.8c2.8,11.8,7.3,22,13.6,30.3c12.2,16.1,30.1,24.7,51.6,24.7s39.5-9,51.8-25.4c6.2-8.3,10.8-18.2,13.6-29.6
	H240L240,131.3z"/>
<path class="st1" d="M221.1,131.3c-1.4,3.3-3,6.2-4.9,8.8c-5.7,7.6-13.8,11.5-24,11.5s-18.3-3.6-23.9-10.9c-2-2.7-3.7-5.8-5.1-9.3
	c-3.1-7.8-4.6-17.8-4.6-29.8c0-11,1.1-20.1,3.3-27.3h-18.4c-1.8,7.9-2.7,17-2.7,27.3c0,11.2,1.2,21.2,3.7,29.8h1
	c2.2,7.6,5.3,14.1,9.4,19.5c8.7,11.5,21.6,17.6,37.4,17.6s28.7-6.5,37.5-18.2c4-5.4,7.1-11.7,9.3-18.9L221.1,131.3L221.1,131.3z"/>
<path class="st1" d="M229.7,150.2c-8.8,11.8-22.1,18.2-37.5,18.2s-28.6-6.1-37.4-17.6c-4.1-5.4-7.2-12-9.4-19.5h-1
	c2.2,7.8,5.4,14.6,9.7,20.1c8.9,11.8,22.1,18,38.1,18s29.1-6.4,38.2-18.6c4.1-5.5,7.3-12,9.5-19.5h-1
	C236.8,138.6,233.7,144.9,229.7,150.2L229.7,150.2z"/>
<path class="st3" d="M603.2,18.7h109.2v31.7h-74.8v34.8h63v32h-63v35.3h74.8v32H603.2V18.7L603.2,18.7z"/>
<path class="st3" d="M727.4,141.1V14h33.2v123.1c0,14.2,4.5,19.2,15.9,19.2c2.6,0,5.9-0.2,8.8-0.5v28.9c-4.3,1-10.7,1.7-16.1,1.7
	C740.7,186.4,727.5,169.6,727.4,141.1L727.4,141.1z"/>
<path class="st3" d="M790.4,124.3c0-39.1,24.2-64.6,60.8-64.6c33.4,0,55.2,22.7,55.2,57.8v12.3h-82.4c1.4,18.7,10.9,29.4,26.5,29.4
	c12.6,0,20.1-4.7,26.8-16.6l24.4,16.6c-10.4,17.5-28.7,27.2-51.6,27.2C812.9,186.4,790.5,162.9,790.4,124.3L790.4,124.3z
	 M875.4,108.5c-1.7-15.4-9.9-23.9-23.9-23.9s-23,8-26.3,23.9H875.4L875.4,108.5z"/>
<path class="st3" d="M915.7,124.6c0-38.6,23.7-64.9,62-64.9c22.3,0,40,10.4,49,28.2l-25.1,15.4c-5.9-11.6-13.3-16.3-23.9-16.3
	c-17.5,0-27.7,11.4-27.7,37.7c0,23,10.9,34.6,27.7,34.6c11.8,0,19.4-5.9,25.6-17.8l24.4,16.6c-9.9,18-28.2,28.4-52.1,28.4
	C938.2,186.4,915.7,162.5,915.7,124.6z"/>
<path class="st3" d="M1058.4,139.7V87.6H1031v-26h14.2c12.8,0,19.7-8,19.7-25.1v-13h35.3V36c0,12.8-4.3,22.3-13.7,25.6h41.9v26
	h-36.5v46.9c0,15.6,6.6,20.8,16.3,20.8c5.4,0,12.6-0.7,18.2-3.1v29.4c-7.1,3.1-14.7,4.7-25.8,4.7
	C1073.8,186.4,1058.5,172.4,1058.4,139.7L1058.4,139.7z"/>
<path class="st3" d="M1139.6,26.6c0-10.9,8.3-19.6,19.9-19.6s20.1,8.8,20.1,19.6s-8.3,19.6-20.1,19.6S1139.6,37.4,1139.6,26.6z
	 M1143,61.6h33.2v122.9H1143V61.6z"/>
<path class="st3" d="M1194.8,122.9c0-38.4,23.2-63.2,59.7-63.2s59.7,24.9,59.7,63.2s-23.2,63.2-59.7,63.2S1194.8,161.3,1194.8,122.9
	z M1254.5,158.9c15.9,0,25.3-13.3,25.3-36s-9.5-36-25.3-36s-25.3,13.3-25.3,36S1238.6,158.9,1254.5,158.9z"/>
<path class="st3" d="M1331.4,61.6h33.2v18.5c8.1-13.7,21.1-20.4,36.9-20.4c27,0,43.1,18,43.1,50v74.8h-33.2V118
	c0-21.8-6.6-31-21.8-31s-25.1,11.1-25.1,30.5v67h-33.2L1331.4,61.6L1331.4,61.6z"/>
</svg>
